<svg xmlns="http://www.w3.org/2000/svg" width="375" viewBox="0 0 375 375" height="375" version="1.0"><defs><clipPath id="a"><path d="M 128.148438 92.964844 L 235 92.964844 L 235 175 L 128.148438 175 Z M 128.148438 92.964844"/></clipPath><clipPath id="b"><path d="M 140 130 L 246.648438 130 L 246.648438 211.464844 L 140 211.464844 Z M 140 130"/></clipPath></defs><g clip-path="url(#a)"><path fill="#C00" d="M 158.554688 174.050781 L 158.554688 116.136719 L 173.121094 116.136719 L 173.121094 144.53125 L 201.664062 144.53125 L 201.664062 116.136719 L 234.433594 116.175781 C 223.605469 102.0625 206.566406 92.964844 187.398438 92.964844 C 154.675781 92.964844 128.148438 119.492188 128.148438 152.214844 C 128.140625 159.757812 129.523438 167.035156 132.304688 174.050781 Z M 158.554688 174.050781"/></g><g clip-path="url(#b)"><path fill="#C00" d="M 216.230469 130.378906 L 216.230469 188.28125 L 201.664062 188.28125 L 201.664062 159.597656 L 173.121094 159.597656 L 173.121094 188.28125 L 140.367188 188.253906 C 151.195312 202.367188 168.234375 211.464844 187.398438 211.464844 C 220.125 211.464844 246.648438 184.9375 246.648438 152.214844 C 246.660156 144.671875 245.273438 137.394531 242.496094 130.378906 Z M 216.230469 130.378906"/></g></svg>